<svg width="57" height="41" viewBox="0 0 57 41" fill="none" xmlns="http://www.w3.org/2000/svg">
<path d="M28.455 2.41846C19.905 2.41846 12.9739 9.34945 12.9739 17.8994V18.7839H25.4279L26.1893 17.8292H30.7208L31.4822 18.7839H43.9362V17.8994C43.9362 9.34945 37.0051 2.41846 28.455 2.41846Z" fill="#FC5A11"/>
<path d="M44.5252 24.8521H12.3854C11.145 24.8521 10.1394 23.8466 10.1394 22.6062C10.1394 21.3659 11.145 20.3604 12.3854 20.3604H44.5252C45.7656 20.3604 46.7711 21.3659 46.7711 22.6062C46.7708 23.8469 45.7656 24.8521 44.5252 24.8521Z" fill="#FC5A11"/>
<path d="M28.7839 9.93233H28.127C27.2905 9.93233 26.5694 9.34443 26.4009 8.52476L25.0836 2.11713C24.8589 1.02393 25.694 0 26.81 0H30.1018C31.2178 0 32.0529 1.02422 31.8279 2.11713L30.5106 8.52476C30.3416 9.34443 29.6202 9.93233 28.7839 9.93233Z" fill="#FC5A11"/>
<path d="M38.3956 6.03421L35.2898 10.748C34.722 11.6097 34.8383 12.7518 35.5677 13.4812L36.1408 14.0543C36.8705 14.7839 38.0126 14.9 38.874 14.3322L42.6933 11.8155C41.7297 9.56305 40.2467 7.58653 38.3956 6.03421Z" fill="#FC5A11"/>
<path d="M18.0369 14.3322C18.8987 14.9 20.0407 14.7836 20.7701 14.0543L21.3432 13.4812C22.0729 12.7515 22.189 11.6094 21.6212 10.748L18.515 6.03421C16.664 7.58653 15.1809 9.56305 14.2173 11.8155L18.0369 14.3322Z" fill="#FC5A11"/>
<path d="M43.8756 27.4462C43.9188 27.1102 43.952 26.7709 43.9747 26.429H39.7046C39.8479 32.2041 34.2744 37.4229 28.4551 36.6201C32.741 36.1213 36.628 33.5154 38.4412 29.5831C38.9092 28.5918 39.2437 27.5335 39.4636 26.429H38.2991C37.8059 31.4315 33.5873 35.3395 28.4551 35.3395C23.323 35.3395 19.1043 31.4315 18.6112 26.429H12.9355C12.958 26.7709 12.9915 27.1102 13.0347 27.4462L15.272 27.8375C15.4041 28.5707 15.5938 29.2839 15.8401 29.9706L14.0965 31.4294C14.6152 32.673 15.2919 33.8337 16.0997 34.889L18.2349 34.1084C18.7112 34.6696 19.2325 35.1912 19.7941 35.6675L19.0135 37.8027C20.0688 38.6105 21.2295 39.2869 22.4731 39.8059L23.9319 38.0623C24.6187 38.3086 25.3318 38.498 26.065 38.6304L26.4564 40.8677C27.1115 40.9518 27.7778 41 28.4557 41C29.1336 41 29.8 40.9518 30.4551 40.8677L30.8464 38.6304C31.5797 38.4983 32.2928 38.3086 32.9796 38.0626L34.4384 39.8062C35.682 39.2872 36.8427 38.6108 37.898 37.803L37.1174 35.6678C37.6786 35.1915 38.2002 34.6702 38.6765 34.1087L40.8117 34.8893C41.6196 33.834 42.296 32.6733 42.8149 31.4297L41.0713 29.9709C41.3176 29.2842 41.5071 28.571 41.6391 27.8378L43.8756 27.4462Z" fill="#FC5A11"/>
<path d="M53.9435 6.71476C53.363 7.02794 52.6387 6.81096 52.3258 6.23077L51.695 5.0609C51.3821 4.48041 51.5987 3.75605 52.1793 3.44316L55.1342 1.84968C53.5247 0.735466 51.3012 0.892063 49.8679 2.32539C49.198 2.99528 48.8081 3.83775 48.6962 4.70982C48.5503 5.84535 48.0636 6.90924 47.254 7.71885L43.9528 11.0201C44.0729 11.2894 44.1863 11.5621 44.2926 11.8386L45.2866 10.8445C45.7573 10.3739 46.5202 10.3739 46.9908 10.8445C47.4615 11.3152 47.4615 12.078 46.9908 12.5487L45.0679 14.4716C45.1351 14.7976 45.1901 15.1273 45.2384 15.4598L49.309 11.3892C50.4129 10.2853 51.8394 9.55358 53.3847 9.33127C54.3636 9.19037 55.3014 8.69779 55.9941 7.85147C56.6377 7.06525 56.9396 6.08572 56.9085 5.11625L53.9435 6.71476Z" fill="#FC5A11"/>
<path d="M9.91955 12.5487C9.44887 12.078 9.44887 11.3152 9.91955 10.8445C10.3902 10.3738 11.1531 10.3738 11.6238 10.8445L12.6178 11.8385C12.7241 11.562 12.8375 11.2894 12.9576 11.02L9.65638 7.71882C8.84676 6.90921 8.3601 5.84532 8.21416 4.70979C8.10197 3.83802 7.7124 2.99554 7.0425 2.32535C5.60915 0.89203 3.38572 0.735437 1.77624 1.84965L4.73115 3.44312C5.31165 3.75602 5.52834 4.48037 5.21544 5.06087L4.58462 6.23073C4.27172 6.81123 3.54735 7.02792 2.96685 6.71473L0.00217492 5.11593C-0.0289075 6.08539 0.273033 7.06492 0.916588 7.85115C1.60928 8.69747 2.54709 9.19004 3.52603 9.33094C5.07128 9.55326 6.49781 10.285 7.60169 11.3889L11.6723 15.4594C11.7203 15.1273 11.7756 14.7972 11.8428 14.4713L9.91955 12.5487Z" fill="#FC5A11"/>
</svg>
